<svg width="107" height="153" viewBox="0 0 107 153" fill="none" xmlns="http://www.w3.org/2000/svg">
<path d="M4.40178 116.328V113.65H17.0115V116.328H12.3138V129H9.10982V116.328H4.40178ZM16.7337 129V117.482H19.8141V119.502H19.9377C20.1506 118.787 20.5043 118.248 20.9988 117.884C21.4933 117.513 22.0599 117.328 22.6986 117.328C22.8635 117.328 23.0352 117.338 23.2137 117.359C23.3992 117.372 23.564 117.4 23.7082 117.441V120.264C23.5571 120.216 23.3477 120.178 23.0798 120.151C22.8188 120.116 22.575 120.099 22.3484 120.099C21.8882 120.099 21.4727 120.202 21.1018 120.408C20.7309 120.607 20.439 120.889 20.2261 121.253C20.0201 121.61 19.9171 122.022 19.9171 122.489V129H16.7337ZM31.6206 124.107V117.482H34.8039V129H31.7442V126.909H31.6206C31.3596 127.575 30.9304 128.117 30.3329 128.536C29.7353 128.948 29.0039 129.151 28.1385 129.144C27.3693 129.144 26.6894 128.973 26.0987 128.629C25.5149 128.279 25.0582 127.781 24.7285 127.135C24.4057 126.49 24.2443 125.717 24.2443 124.817V117.482H27.4277V124.261C27.4277 124.934 27.6097 125.47 27.9737 125.868C28.3377 126.26 28.8219 126.452 29.4263 126.445C29.8109 126.445 30.168 126.359 30.4977 126.188C30.8274 126.009 31.0952 125.745 31.3012 125.394C31.5142 125.044 31.6206 124.615 31.6206 124.107ZM38.647 113.65L41.2122 127.177H41.3462L48.3825 113.65H49.8453L41.717 129H40.2129L37.1841 113.65H38.647ZM52.2255 129.247C51.1404 129.247 50.2407 128.99 49.5264 128.475C48.8121 127.959 48.3107 127.252 48.0223 126.352C47.7407 125.446 47.6926 124.405 47.8781 123.231C48.0704 122.077 48.4481 121.057 49.0113 120.171C49.5745 119.285 50.2681 118.591 51.0923 118.09C51.9233 117.582 52.8265 117.328 53.8017 117.328C54.4405 117.328 55.0346 117.445 55.584 117.678C56.1403 117.912 56.6142 118.269 57.0057 118.749C57.404 119.223 57.6822 119.821 57.8401 120.542C57.9981 121.263 57.9947 122.115 57.8298 123.097L57.7268 123.653H48.7331L48.9289 122.479H57.2117L56.5215 122.881C56.6588 122.05 56.6417 121.308 56.47 120.655C56.3051 120.003 55.9961 119.488 55.5428 119.11C55.0964 118.732 54.5057 118.543 53.7708 118.543C53.0222 118.543 52.332 118.743 51.7001 119.141C51.0683 119.539 50.5394 120.061 50.1136 120.707C49.6947 121.352 49.4199 122.06 49.2894 122.829L49.1761 123.519C49.025 124.44 49.0491 125.236 49.2482 125.909C49.4474 126.582 49.8011 127.104 50.3093 127.475C50.8244 127.846 51.4735 128.032 52.2564 128.032C52.8196 128.032 53.3244 127.942 53.7708 127.764C54.2241 127.578 54.619 127.338 54.9556 127.043C55.2921 126.747 55.56 126.431 55.7591 126.095L56.9748 126.589C56.7207 127.07 56.3635 127.513 55.9034 127.918C55.4501 128.317 54.9109 128.639 54.2859 128.887C53.6678 129.127 52.981 129.247 52.2255 129.247ZM58.6441 129L60.5603 117.482H61.8687L61.5596 119.265H61.6626C61.9854 118.681 62.4662 118.21 63.1049 117.853C63.7436 117.496 64.4236 117.321 65.1447 117.328C65.2546 117.321 65.3748 117.321 65.5053 117.328C65.6358 117.328 65.7491 117.331 65.8452 117.338L65.6083 118.688C65.5534 118.681 65.4503 118.667 65.2992 118.646C65.155 118.626 64.9936 118.619 64.815 118.626C64.2175 118.619 63.6612 118.743 63.1461 118.997C62.6379 119.251 62.2121 119.601 61.8687 120.048C61.5321 120.494 61.3158 121.002 61.2196 121.572L59.9937 129H58.6441ZM65.1245 129L67.0407 117.482H68.3903L66.4741 129H65.1245ZM68.2048 115.504C67.9301 115.504 67.6966 115.408 67.5043 115.216C67.312 115.024 67.2158 114.79 67.2158 114.515C67.2296 114.268 67.336 114.052 67.5352 113.866C67.7344 113.681 67.9644 113.588 68.2254 113.588C68.507 113.588 68.744 113.684 68.9363 113.877C69.1354 114.062 69.2316 114.289 69.2247 114.557C69.2179 114.818 69.1148 115.041 68.9157 115.226C68.7165 115.412 68.4795 115.504 68.2048 115.504ZM75.5609 117.482L75.3755 118.646H69.7196L69.9154 117.482H75.5609ZM69.7609 129L71.9552 115.803C72.0582 115.178 72.2883 114.656 72.6454 114.237C73.0026 113.818 73.4284 113.499 73.9229 113.279C74.4242 113.052 74.9359 112.939 75.4579 112.939C75.815 112.946 76.1035 112.977 76.3233 113.032C76.543 113.087 76.7147 113.142 76.8384 113.197L76.2717 114.361C76.1687 114.326 76.0485 114.292 75.9112 114.258C75.7738 114.223 75.5952 114.203 75.3755 114.196C74.7986 114.203 74.3247 114.371 73.9538 114.701C73.5829 115.024 73.3425 115.487 73.2326 116.092L71.1001 129H69.7609ZM75.2213 129L77.1375 117.482H78.4871L76.5709 129H75.2213ZM78.3017 115.504C78.0269 115.504 77.7934 115.408 77.6011 115.216C77.4088 115.024 77.3127 114.79 77.3127 114.515C77.3264 114.268 77.4328 114.052 77.632 113.866C77.8312 113.681 78.0613 113.588 78.3223 113.588C78.6038 113.588 78.8408 113.684 79.0331 113.877C79.2323 114.062 79.3284 114.289 79.3216 114.557C79.3147 114.818 79.2117 115.041 79.0125 115.226C78.8133 115.412 78.5764 115.504 78.3017 115.504ZM83.7209 129.247C82.6358 129.247 81.7361 128.99 81.0218 128.475C80.3075 127.959 79.8062 127.252 79.5177 126.352C79.2361 125.446 79.188 124.405 79.3735 123.231C79.5658 122.077 79.9435 121.057 80.5067 120.171C81.0699 119.285 81.7636 118.591 82.5877 118.09C83.4188 117.582 84.3219 117.328 85.2972 117.328C85.9359 117.328 86.53 117.445 87.0794 117.678C87.6357 117.912 88.1096 118.269 88.5011 118.749C88.8994 119.223 89.1776 119.821 89.3356 120.542C89.4935 121.263 89.4901 122.115 89.3253 123.097L89.2222 123.653H80.2286L80.4243 122.479H88.7071L88.0169 122.881C88.1543 122.05 88.1371 121.308 87.9654 120.655C87.8006 120.003 87.4915 119.488 87.0382 119.11C86.5918 118.732 86.0011 118.543 85.2663 118.543C84.5176 118.543 83.8274 118.743 83.1955 119.141C82.5637 119.539 82.0348 120.061 81.609 120.707C81.1901 121.352 80.9154 122.06 80.7849 122.829L80.6715 123.519C80.5204 124.44 80.5445 125.236 80.7437 125.909C80.9428 126.582 81.2965 127.104 81.8048 127.475C82.3199 127.846 82.9689 128.032 83.7519 128.032C84.315 128.032 84.8198 127.942 85.2663 127.764C85.7195 127.578 86.1145 127.338 86.451 127.043C86.7875 126.747 87.0554 126.431 87.2545 126.095L88.4702 126.589C88.2161 127.07 87.8589 127.513 87.3988 127.918C86.9455 128.317 86.4063 128.639 85.7814 128.887C85.1632 129.127 84.4764 129.247 83.7209 129.247ZM94.281 129.247C93.3332 129.24 92.5433 128.99 91.9115 128.495C91.2865 128.001 90.8504 127.304 90.6031 126.404C90.3559 125.504 90.325 124.46 90.5104 123.272C90.7164 122.091 91.0908 121.054 91.6333 120.161C92.1828 119.268 92.8558 118.574 93.6525 118.08C94.4492 117.578 95.318 117.328 96.2589 117.328C96.9664 117.328 97.5295 117.455 97.9485 117.709C98.3743 117.956 98.6971 118.262 98.9169 118.626C99.1367 118.99 99.2912 119.344 99.3805 119.687H99.5144L100.503 113.65H101.843L99.3084 129H98.0103L98.3606 126.857H98.206C97.9931 127.207 97.7115 127.568 97.3613 127.939C97.0179 128.303 96.592 128.612 96.0838 128.866C95.5756 129.113 94.9746 129.24 94.281 129.247ZM94.5694 128.021C95.318 128.021 95.9911 127.819 96.5886 127.413C97.1861 127.001 97.6875 126.438 98.0927 125.724C98.5048 125.003 98.7864 124.182 98.9375 123.262C99.0954 122.335 99.092 121.521 98.9272 120.82C98.7692 120.113 98.4602 119.556 98 119.151C97.5398 118.746 96.932 118.543 96.1765 118.543C95.4073 118.543 94.7239 118.753 94.1264 119.172C93.5358 119.591 93.0481 120.157 92.6635 120.872C92.2789 121.579 92.0145 122.376 91.8703 123.262C91.7192 124.148 91.7157 124.951 91.86 125.672C92.0042 126.394 92.2995 126.967 92.746 127.393C93.1992 127.812 93.8071 128.021 94.5694 128.021Z" fill="#282828"/>
<path d="M13.5689 142.086V135.507H15.9177C16.427 135.507 16.8493 135.602 17.1849 135.79C17.5205 135.975 17.7721 136.23 17.9399 136.554C18.1077 136.875 18.1916 137.237 18.1916 137.64C18.1916 138.043 18.1077 138.407 17.9399 138.73C17.7721 139.051 17.519 139.306 17.1805 139.494C16.8449 139.68 16.4211 139.772 15.9089 139.772H14.3018V138.934H15.8162C16.1429 138.934 16.4064 138.878 16.6065 138.766C16.8096 138.654 16.9568 138.501 17.048 138.307C17.1422 138.109 17.1893 137.887 17.1893 137.64C17.1893 137.39 17.1422 137.169 17.048 136.978C16.9568 136.783 16.8096 136.632 16.6065 136.523C16.4034 136.414 16.1385 136.359 15.8118 136.359H14.5623V142.086H13.5689ZM25.609 142.086H24.5538L26.9203 135.507H28.0683L30.4304 142.086H29.3796L27.5164 136.704H27.4634L25.609 142.086ZM25.7856 139.512H29.1986V140.342H25.7856V139.512ZM37.7728 142.086V135.507H40.1217C40.6309 135.507 41.0533 135.596 41.3888 135.772C41.7244 135.946 41.976 136.189 42.1438 136.501C42.3116 136.81 42.3955 137.167 42.3955 137.574C42.3955 137.974 42.3116 138.327 42.1438 138.633C41.976 138.939 41.7229 139.176 41.3844 139.344C41.0489 139.512 40.625 139.596 40.1128 139.596H38.3424V138.748H40.0201C40.3468 138.748 40.6103 138.701 40.8104 138.607C41.0135 138.513 41.1607 138.379 41.252 138.205C41.3461 138.031 41.3932 137.821 41.3932 137.574C41.3932 137.323 41.3461 137.109 41.252 136.929C41.1578 136.747 41.0091 136.607 40.806 136.51C40.6059 136.41 40.3424 136.359 40.0157 136.359H38.7662V142.086H37.7728ZM41.5169 142.086L39.923 139.115H41.0224L42.6471 142.086H41.5169ZM49.6849 136.359V135.507H54.78V136.359H52.7314V142.086H51.7424V136.359H49.6849ZM67.6149 135.507V142.086H66.6877L63.3543 137.265H63.288V142.086H62.2946V135.507H63.213L66.5597 140.338H66.6215V135.507H67.6149ZM75.4606 142.086V135.507H79.5888V136.359H76.454V138.342H79.3681V139.19H76.454V141.234H79.6197V142.086H75.4606ZM87.3109 142.086V135.507H89.6598C90.169 135.507 90.5914 135.596 90.927 135.772C91.2625 135.946 91.5142 136.189 91.6819 136.501C91.8497 136.81 91.9336 137.167 91.9336 137.574C91.9336 137.974 91.8497 138.327 91.6819 138.633C91.5142 138.939 91.261 139.176 90.9225 139.344C90.587 139.512 90.1631 139.596 89.651 139.596H87.8805V138.748H89.5583C89.885 138.748 90.1484 138.701 90.3486 138.607C90.5517 138.513 90.6988 138.379 90.7901 138.205C90.8843 138.031 90.9314 137.821 90.9314 137.574C90.9314 137.323 90.8843 137.109 90.7901 136.929C90.6959 136.747 90.5472 136.607 90.3441 136.51C90.144 136.41 89.8806 136.359 89.5538 136.359H88.3043V142.086H87.3109ZM91.055 142.086L89.4611 139.115H90.5605L92.1853 142.086H91.055Z" fill="black"/>
<path d="M44.9851 6.5578C50.0038 2.69265 56.9962 2.69265 62.0149 6.5578C64.7788 8.68642 68.2397 9.70263 71.7157 9.4062C78.0273 8.86792 83.9098 12.6483 86.0421 18.6132C87.2164 21.8982 89.5785 24.6242 92.6629 26.2541C98.2636 29.2136 101.168 35.5742 99.7374 41.745C98.9492 45.1433 99.4626 48.7136 101.176 51.7523C104.288 57.27 103.293 64.1913 98.7526 68.6088C96.2523 71.0416 94.7539 74.3227 94.5526 77.8055C94.1872 84.1295 89.6081 89.414 83.4005 90.6758C79.9818 91.3706 76.9474 93.3207 74.8951 96.1418C71.1687 101.264 64.4595 103.234 58.5551 100.94C55.3035 99.6759 51.6965 99.6759 48.4449 100.94C42.5405 103.234 35.8313 101.264 32.1049 96.1418C30.0526 93.3207 27.0182 91.3706 23.5995 90.6758C17.3919 89.414 12.8128 84.1295 12.4474 77.8055C12.2461 74.3227 10.7477 71.0416 8.24741 68.6088C3.70736 64.1913 2.71223 57.27 5.82381 51.7523C7.53742 48.7136 8.05075 45.1433 7.26265 41.745C5.83162 35.5742 8.7364 29.2136 14.3371 26.2541C17.4215 24.6242 19.7836 21.8982 20.9579 18.6132C23.0902 12.6483 28.9727 8.86792 35.2843 9.4062C38.7603 9.70263 42.2212 8.68642 44.9851 6.5578Z" fill="#2DBB7E"/>
<path d="M46.4645 10.7119C50.8504 7.33416 56.9614 7.33409 61.3473 10.7119C64.0344 12.7814 67.3995 13.7696 70.7789 13.4814C76.2946 13.0113 81.4349 16.3148 83.2985 21.5273C84.4402 24.7211 86.7372 27.3715 89.736 28.9561C94.6304 31.5425 97.1692 37.1014 95.9186 42.4941C95.1524 45.7981 95.651 49.2693 97.317 52.2236C100.036 57.0457 99.1665 63.0945 95.1989 66.9551C92.7681 69.3203 91.3115 72.5106 91.1158 75.8965C90.7963 81.4229 86.7945 86.0408 81.3698 87.1436C78.046 87.8191 75.0955 89.7153 73.1002 92.458C69.8437 96.9345 63.9807 98.6564 58.8209 96.6514C55.6596 95.4228 52.1522 95.4228 48.9908 96.6514C43.831 98.6566 37.9672 96.9346 34.7106 92.458C32.7154 89.7154 29.7656 87.8191 26.442 87.1436C21.0171 86.0409 17.0155 81.423 16.6959 75.8965C16.5003 72.5106 15.0436 69.3203 12.6129 66.9551C8.64525 63.0945 7.77546 57.0457 10.4948 52.2236C12.1607 49.2694 12.6594 45.7981 11.8932 42.4941C10.6426 37.1013 13.1812 31.5424 18.0758 28.9561C21.0745 27.3715 23.3706 24.7211 24.5123 21.5273C26.3758 16.3146 31.517 13.0111 37.0328 13.4814C40.4122 13.7697 43.7774 12.7814 46.4645 10.7119Z" stroke="white" stroke-width="1.37179"/>
<path d="M63.2442 34.2949L54.8272 49.6309L50.1973 40.4297H39.3956L54.2383 65.5059C54.5037 65.9536 55.1519 65.9542 55.418 65.5068L73.9766 34.2949H74.6739C78.4021 34.2951 80.7323 38.2298 78.8682 41.3779L59.0274 74.876C57.1632 78.0242 52.5019 78.0242 50.6377 74.876L30.7969 41.3779C28.9328 38.2298 31.2631 34.2952 34.9913 34.2949H63.2442Z" fill="white"/>
</svg>
