<svg width="95" height="42" viewBox="0 0 95 42" fill="none" xmlns="http://www.w3.org/2000/svg">
<path d="M12.3125 32.876L1 41H94L78.1083 15.0606C73.6947 7.85651 63.3952 7.40227 58.3646 14.1898L52.4982 22.105C50.6512 24.597 46.9219 24.597 45.0749 22.105C43.3261 19.7454 39.8483 19.5952 37.9025 21.7952L28.2482 32.7114C26.0551 35.1912 22.2689 35.4292 19.7825 33.2435C17.6817 31.3968 14.5844 31.2444 12.3125 32.876Z" fill="url(#paint0_linear_698_92349)"/>
<path d="M1 41L12.2813 32.8983C14.5656 31.2579 17.6839 31.4292 19.7748 33.3099V33.3099C22.2541 35.54 26.0779 35.3136 28.2767 32.8065L37.912 21.8204C39.8498 19.6108 43.3325 19.754 45.0824 22.1151V22.1151C46.9257 24.6021 50.6474 24.6021 52.4907 22.1151L58.3646 14.1898C63.3952 7.40227 73.6947 7.85651 78.1083 15.0606L94 41" stroke="#D92D27"/>
<defs>
<linearGradient id="paint0_linear_698_92349" x1="53.4427" y1="-5.95161" x2="57.4981" y2="45.4479" gradientUnits="userSpaceOnUse">
<stop stop-color="#E7504A"/>
<stop offset="1" stop-color="white" stop-opacity="0"/>
</linearGradient>
</defs>
</svg>
