<svg width="165" height="154" viewBox="0 0 165 154" fill="none" xmlns="http://www.w3.org/2000/svg">
<g clip-path="url(#clip0_1806_4157)">
<path d="M70.5618 53.9375H37.019C34.7034 53.9375 32.8262 55.8117 32.8262 58.1235V91.6119C32.8262 93.9238 34.7034 95.7979 37.019 95.7979H70.5618C72.8775 95.7979 74.7547 93.9238 74.7547 91.6119V58.1235C74.7547 55.8117 72.8775 53.9375 70.5618 53.9375Z" fill="#CB2026"/>
<path d="M48.1323 53.7495H59.4197V69.8274C59.4197 71.0731 58.4041 72.0725 57.1709 72.0725H50.3956C49.1479 72.0725 48.1468 71.0586 48.1468 69.8274V53.7495H48.1323Z" fill="white"/>
<path d="M157.669 36.9907H25.9928C22.7958 36.9907 20.2041 39.5782 20.2041 42.7701V123.84C20.2041 127.032 22.7958 129.62 25.9928 129.62H157.669C160.866 129.62 163.457 127.032 163.457 123.84V42.7701C163.457 39.5782 160.866 36.9907 157.669 36.9907Z" stroke="#CB2026" stroke-width="1.18" stroke-miterlimit="10"/>
<path d="M120.18 153.099C121.854 153.099 123.212 151.744 123.212 150.072C123.212 148.4 121.854 147.044 120.18 147.044C118.505 147.044 117.147 148.4 117.147 150.072C117.147 151.744 118.505 153.099 120.18 153.099Z" fill="#AED687"/>
<path d="M155.914 153.099C157.588 153.099 158.946 151.744 158.946 150.072C158.946 148.4 157.588 147.044 155.914 147.044C154.239 147.044 152.881 148.4 152.881 150.072C152.881 151.744 154.239 153.099 155.914 153.099Z" fill="#ADABD5"/>
<path d="M137.604 139.687H120.18C119.687 139.687 119.295 140.078 119.295 140.57V146.263C117.554 146.668 116.263 148.218 116.263 150.072C116.263 152.23 118.018 153.983 120.18 153.983C122.342 153.983 124.097 152.23 124.097 150.072C124.097 148.218 122.791 146.668 121.065 146.263V141.454H137.604V146.263C135.863 146.668 134.572 148.218 134.572 150.072C134.572 152.23 136.327 153.983 138.489 153.983C140.651 153.983 142.406 152.23 142.406 150.072C142.406 148.218 141.101 146.668 139.374 146.263V141.454H155.014V146.263C153.273 146.668 151.982 148.218 151.982 150.072C151.982 152.23 153.737 153.983 155.899 153.983C158.061 153.983 159.831 152.23 159.831 150.072C159.831 148.218 158.525 146.668 156.798 146.263V140.57C156.798 140.078 156.407 139.687 155.913 139.687H139.374M140.636 150.072C140.636 151.26 139.679 152.216 138.489 152.216C137.299 152.216 136.342 151.26 136.342 150.072C136.342 148.884 137.299 147.928 138.489 147.928C139.679 147.928 140.636 148.899 140.636 150.072Z" fill="#CB2026"/>
<path d="M68.7777 54.792H38.7893C36.017 54.792 33.7695 57.0358 33.7695 59.8037V89.7433C33.7695 92.5111 36.017 94.7549 38.7893 94.7549H68.7777C71.55 94.7549 73.7975 92.5111 73.7975 89.7433V59.8037C73.7975 57.0358 71.55 54.792 68.7777 54.792Z" stroke="#CB2026" stroke-width="1.03" stroke-miterlimit="10"/>
<path d="M45.5211 104.025H35.4525C34.523 104.025 33.7695 104.778 33.7695 105.706V115.758C33.7695 116.686 34.523 117.438 35.4525 117.438H45.5211C46.4506 117.438 47.2041 116.686 47.2041 115.758V105.706C47.2041 104.778 46.4506 104.025 45.5211 104.025Z" stroke="#CB2026" stroke-miterlimit="10"/>
<path d="M61.6832 104.025H51.6146C50.6851 104.025 49.9316 104.778 49.9316 105.706V115.758C49.9316 116.686 50.6851 117.438 51.6146 117.438H61.6832C62.6127 117.438 63.3662 116.686 63.3662 115.758V105.706C63.3662 104.778 62.6127 104.025 61.6832 104.025Z" stroke="#CB2026" stroke-miterlimit="10"/>
<path d="M77.8453 104.025H67.7767C66.8472 104.025 66.0938 104.778 66.0938 105.706V115.758C66.0938 116.686 66.8472 117.438 67.7767 117.438H77.8453C78.7748 117.438 79.5283 116.686 79.5283 115.758V105.706C79.5283 104.778 78.7748 104.025 77.8453 104.025Z" stroke="#CB2026" stroke-miterlimit="10"/>
<path d="M147.194 55.5454H84.6637C82.8609 55.5454 81.3994 57.0045 81.3994 58.8044C81.3994 60.6044 82.8609 62.0635 84.6637 62.0635H147.194C148.997 62.0635 150.458 60.6044 150.458 58.8044C150.458 57.0045 148.997 55.5454 147.194 55.5454Z" fill="#333333"/>
<path d="M147.194 68.6538H84.6637C82.8609 68.6538 81.3994 70.1129 81.3994 71.9128C81.3994 73.7127 82.8609 75.1719 84.6637 75.1719H147.194C148.997 75.1719 150.458 73.7127 150.458 71.9128C150.458 70.1129 148.997 68.6538 147.194 68.6538Z" fill="#333333"/>
<path d="M147.194 81.7627H84.6637C82.8609 81.7627 81.3994 83.2218 81.3994 85.0217C81.3994 86.8216 82.8609 88.2808 84.6637 88.2808H147.194C148.997 88.2808 150.458 86.8216 150.458 85.0217C150.458 83.2218 148.997 81.7627 147.194 81.7627Z" fill="#333333"/>
<path d="M64.2072 10.4116H35.6407C34.3907 10.4116 33.3774 11.4233 33.3774 12.6712V14.6701C33.3774 15.918 34.3907 16.9297 35.6407 16.9297H64.2072C65.4572 16.9297 66.4705 15.918 66.4705 14.6701V12.6712C66.4705 11.4233 65.4572 10.4116 64.2072 10.4116Z" fill="#333333"/>
<path d="M64.2072 20.2612H35.6407C34.3907 20.2612 33.3774 21.2729 33.3774 22.5208V24.5197C33.3774 25.7676 34.3907 26.7793 35.6407 26.7793H64.2072C65.4572 26.7793 66.4705 25.7676 66.4705 24.5197V22.5208C66.4705 21.2729 65.4572 20.2612 64.2072 20.2612Z" fill="#333333"/>
<path d="M91.0912 112.281C90.714 112.629 90.5834 113.397 89.7275 112.962C88.4508 112.325 90.656 111.05 90.656 110.514C90.656 109.747 88.7409 109.225 89.4953 108.313C90.4239 107.168 91.1493 109.413 91.9182 109.254C92.6001 109.124 93.1369 107.574 94.0509 108.153C95.2406 108.921 92.9048 109.978 93.0208 110.645C93.0934 111.079 94.7038 111.774 94.2395 112.716C93.7172 113.759 92.455 112.035 91.9182 111.746C91.7876 111.717 91.2508 112.151 91.1057 112.281H91.0912Z" fill="#19100E"/>
<path d="M98.6933 112.281C98.3161 112.629 98.1855 113.397 97.3295 112.962C96.0528 112.325 98.258 111.05 98.258 110.514C98.258 109.747 96.343 109.225 97.0974 108.313C98.0259 107.168 98.7513 109.413 99.5203 109.254C100.202 109.124 100.739 107.574 101.653 108.153C102.843 108.921 100.507 109.978 100.623 110.645C100.695 111.079 102.306 111.774 101.842 112.716C101.319 113.759 100.057 112.035 99.5203 111.746C99.3897 111.717 98.8529 112.151 98.7078 112.281H98.6933Z" fill="#19100E"/>
<path d="M105.439 112.281C105.062 112.629 104.932 113.397 104.076 112.962C102.799 112.325 105.004 111.05 105.004 110.514C105.004 109.747 103.089 109.225 103.843 108.313C104.772 107.168 105.497 109.413 106.266 109.254C106.948 109.124 107.485 107.574 108.399 108.153C109.589 108.921 107.253 109.978 107.369 110.645C107.442 111.079 109.052 111.774 108.588 112.716C108.065 113.759 106.803 112.035 106.266 111.746C106.136 111.717 105.599 112.151 105.454 112.281H105.439Z" fill="#19100E"/>
<path d="M127.985 -0.00292969L151.126 0.040524C151.503 0.156401 151.721 0.576453 151.895 0.909598L151.851 25.6348C151.59 26.3155 151.169 26.8225 150.386 26.779C143.407 26.359 135.834 27.315 128.928 26.779C127.681 26.6777 127.332 26.5473 127.216 25.2292V1.34414C127.187 0.779237 127.492 0.272277 128 -0.00292969H127.985ZM150.444 1.27171H128.507V25.2147C128.507 25.2147 128.74 25.461 128.754 25.461H150.197C150.197 25.461 150.444 25.2292 150.444 25.2147V1.27171Z" fill="#19100E"/>
<path d="M134.543 4.90749C138.982 4.73367 139.345 11.7152 134.819 11.9035C130.292 12.0918 129.929 5.0813 134.543 4.90749Z" fill="#E42C26"/>
<path d="M147.644 15.0176C148.064 15.6984 147.411 16.2343 146.773 16.3067C142.218 16.8282 136.704 15.9156 132.033 16.3067C131.554 16.3067 131.133 16.0605 131.032 15.568C131.133 15.0755 131.554 14.8438 132.033 14.8293C136.835 15.1045 142.014 14.4817 146.773 14.8293C146.962 14.8293 147.571 14.9017 147.644 15.0176Z" fill="#19100E"/>
<path d="M142.9 20.2033C142.827 20.3192 142.218 20.3771 142.029 20.3916C139.36 20.5799 134.514 20.6378 131.874 20.3916C130.626 20.2757 130.873 19.0445 132.033 18.9142C134.151 18.6679 139.897 18.6679 142.029 18.9142C142.668 18.9866 143.321 19.5225 142.9 20.2033Z" fill="#19100E"/>
<path d="M147.252 6.34146C147.948 6.45734 147.934 7.54368 146.773 7.65956C145.975 7.73198 141.637 7.78992 141.071 7.61611C140.477 7.44229 140.433 6.34146 141.042 6.34146C142.754 6.34146 145.743 6.08074 147.266 6.34146H147.252Z" fill="#19100E"/>
<path d="M122.719 13.4821C123.43 15.5244 119.295 14.5395 118.163 14.6554C115.174 14.9595 116.277 18.9862 115.581 20.7389C114.304 23.9834 111.402 22.8681 108.965 23.2737C108.196 23.404 106.934 24.8235 106.47 23.882C105.831 22.6219 108.878 21.8252 109.748 21.7673C111.17 21.6514 112.665 22.1873 113.767 21.043C115.044 19.696 114.318 17.8564 114.696 16.2487C115.073 14.6409 116.524 13.4386 118.105 13.2793C118.772 13.2069 122.414 13.1779 122.733 13.4821H122.719Z" fill="#19100E"/>
<path d="M121.66 102.302C130.06 101.404 134.485 111.702 128.029 116.946C122.284 121.61 113.912 116.989 114.522 109.732C114.841 106.082 117.96 102.693 121.66 102.302ZM128.217 115.555C133.629 109.79 127.39 100.65 119.962 103.62C115.16 105.532 113.825 111.818 117.351 115.555C119.527 111.021 126.186 110.833 128.217 115.555Z" fill="#0B0B0B"/>
<path d="M125.04 106.314C127.536 109.124 123.314 113.064 120.615 110.283C117.917 107.502 122.458 103.403 125.04 106.314Z" fill="#0B0B0B"/>
<path d="M7.87245 112.224C9.10564 112.962 9.84556 115.019 9.58441 116.395C8.97507 119.64 4.65164 120.639 2.6205 118.104C-0.136044 114.657 3.88271 109.863 7.87245 112.224Z" fill="#D63E2A"/>
<path d="M159.99 21.8687C160.193 21.9991 160.701 22.7812 160.933 22.7812C161.427 22.8102 161.775 21.7818 162.268 21.6949C162.877 21.579 162.979 21.7238 163.211 22.1294C163.24 22.1729 163.385 22.1874 163.4 22.2743C163.559 22.955 162.326 23.6503 161.963 24.1717C162.515 24.5339 164.14 26.0113 163.08 26.6341C162.166 27.17 161.47 25.9823 160.933 25.4319C160.701 25.4319 159.802 26.6631 159.599 26.7355C159.018 26.9238 158.525 26.5472 158.525 25.9533C158.525 25.1857 159.903 24.6208 159.816 24.0703C159.816 23.9979 158.714 23.1868 158.641 23.013C158.249 22.086 159.12 21.3328 160.005 21.8832L159.99 21.8687Z" fill="#191918"/>
<path d="M2.40261 95.7399C7.07423 94.8998 7.00169 101.968 2.62023 101.273C-0.499018 100.781 -0.324921 96.2324 2.40261 95.7399Z" fill="#E42C26"/>
<path d="M18.7247 108.24C18.6521 108.457 18.9423 108.704 18.9423 108.776V112.89C18.9423 112.89 18.4345 113.426 18.4055 113.426H14.5028C13.7629 113.426 13.5743 108.226 14.7204 108.226H18.7392L18.7247 108.24Z" fill="#19100E"/>
<path d="M8.10466 78.6917C8.11917 78.6193 8.56892 78.1848 8.67048 78.1703C8.8881 78.0979 9.39588 78.6338 9.39588 78.6917V83.6744C9.39588 83.6744 8.8881 84.2104 8.85908 84.2104H4.30353C3.75222 84.2104 3.52009 82.4722 4.0859 82.4722H7.77097C7.77097 82.4722 8.09015 82.168 8.09015 82.1535C8.09015 81.3569 7.93056 79.2566 8.09015 78.6917H8.10466Z" fill="#19100E"/>
</g>
<defs>
<clipPath id="clip0_1806_4157">
<rect width="164" height="154" fill="white" transform="translate(0.328125 -0.00292969)"/>
</clipPath>
</defs>
</svg>
